<svg id="Layer_1" data-name="Layer 1" xmlns="http://www.w3.org/2000/svg" viewBox="0 0 208 172"><defs><style>.cls-1{fill:#42040e;}.cls-2{fill:#fff;}</style></defs><title>mcc_logo</title><rect class="cls-1" width="208" height="172"/><path class="cls-2" d="M495.24,151.51a5.54,5.54,0,0,1,2.23-2.08,7.28,7.28,0,0,1,3.27-.68q3.48,0,4.91,2c1,1.36,1.44,3.93,1.44,7.69v12.67h-4.34V158.63q0-4.62-.68-5.75a2.68,2.68,0,0,0-2.49-1.12,3.09,3.09,0,0,0-2.83,1.2q-.76,1.2-.76,5.67v12.52h-4.34V158.63q0-4.68-.73-5.78a3,3,0,0,0-2.65-1.09,2.83,2.83,0,0,0-2.62,1.2q-.73,1.2-.73,5.67v12.52h-4.31V149.28h4.31v1.87a5.63,5.63,0,0,1,2.13-1.78,6.6,6.6,0,0,1,2.9-.62,6.88,6.88,0,0,1,3.26.69A4.67,4.67,0,0,1,495.24,151.51Z" transform="translate(-403 -126)"/><path class="cls-2" d="M537,158.67v12.48h-4.78v-3.24a9,9,0,0,1-3.83,2.88,15,15,0,0,1-5.61.93,11.9,11.9,0,0,1-7.05-1.88,5.9,5.9,0,0,1-2.63-5.05,6.06,6.06,0,0,1,3.24-5.55q3.24-1.89,9.51-1.89h6.37v-.57a4.34,4.34,0,0,0-1.75-3.8q-1.74-1.18-5.53-1.18a23,23,0,0,0-4.9.53,25.36,25.36,0,0,0-4.83,1.54v-3.59a42.49,42.49,0,0,1,5.05-1.15,30.52,30.52,0,0,1,4.68-.38,20.67,20.67,0,0,1,6.13.8,9.79,9.79,0,0,1,4.12,2.41,5.42,5.42,0,0,1,1.39,2.41A16.37,16.37,0,0,1,537,158.67Zm-9.22,1.49h-1.57a14,14,0,0,0-6.26,1.1,3.7,3.7,0,0,0-.53,6.36,7.54,7.54,0,0,0,4.36,1.09,8.75,8.75,0,0,0,6.17-2.06,7.41,7.41,0,0,0,2.27-5.69v-.8Z" transform="translate(-403 -126)"/><path class="cls-2" d="M568.82,170a19.86,19.86,0,0,1-3.94,1.26,20.33,20.33,0,0,1-4.14.42q-6.71,0-10.49-3.05a11.3,11.3,0,0,1,0-16.87q3.78-3,10.49-3.05a20.46,20.46,0,0,1,4.08.41,21.76,21.76,0,0,1,4,1.27v3.77a13.67,13.67,0,0,0-3.78-1.83,15,15,0,0,0-4.3-.57q-4.47,0-6.86,2.19a9.28,9.28,0,0,0,0,12.49q2.42,2.19,6.85,2.19a15.94,15.94,0,0,0,4.44-.57,12,12,0,0,0,3.64-1.79Z" transform="translate(-403 -126)"/><path class="cls-2" d="M595.4,164.12c-.79,1.53-1.8,3.53-3,6a51.92,51.92,0,0,1-3.43,6.29,7.33,7.33,0,0,1-3,2.28,10.47,10.47,0,0,1-4.16.76H578v-3h2.82a5.23,5.23,0,0,0,3.27-.92c.8-.61,1.8-2.2,3-4.75l-11.17-21.52h5l8.57,17.11L598,149.28h5Z" transform="translate(-403 -126)"/><path class="cls-2" d="M441.54,218a19.86,19.86,0,0,1-3.94,1.26,20.33,20.33,0,0,1-4.14.42q-6.72,0-10.49-3.05a11.3,11.3,0,0,1,0-16.87q3.78-3,10.49-3.05a20.46,20.46,0,0,1,4.08.41,22,22,0,0,1,4,1.27v3.77a13.59,13.59,0,0,0-3.79-1.83,14.86,14.86,0,0,0-4.29-.57q-4.47,0-6.87,2.19a9.3,9.3,0,0,0,0,12.49c1.6,1.46,3.89,2.19,6.85,2.19a15.94,15.94,0,0,0,4.44-.57,12.1,12.1,0,0,0,3.64-1.79Z" transform="translate(-403 -126)"/><path class="cls-2" d="M461.87,196.75q6,0,9.2,2.95c2.13,2,3.19,4.81,3.19,8.54s-1.06,6.58-3.18,8.54-5.18,2.94-9.21,2.94-7.07-1-9.19-2.94-3.17-4.81-3.17-8.54,1.06-6.57,3.17-8.54S457.86,196.75,461.87,196.75Zm0,3.05a6.87,6.87,0,0,0-5.47,2.13q-1.86,2.13-1.86,6.31t1.86,6.3a8.13,8.13,0,0,0,11,0q1.86-2.14,1.86-6.3t-1.86-6.31A6.91,6.91,0,0,0,461.87,199.8Z" transform="translate(-403 -126)"/><path class="cls-2" d="M499.94,200.07V188.76h4.75v30.39h-4.75V216.4a7.56,7.56,0,0,1-3.16,2.47,11.41,11.41,0,0,1-4.56.85,11,11,0,0,1-8.24-3.08q-3-3.07-3-8.48t3-8.37a11.07,11.07,0,0,1,8.23-3,11.76,11.76,0,0,1,4.6.85A7.2,7.2,0,0,1,499.94,200.07Zm-14,8.17c0,2.78.58,4.89,1.75,6.3a6.34,6.34,0,0,0,5.19,2.13,6.4,6.4,0,0,0,5.22-2.14c1.2-1.44,1.8-3.53,1.8-6.29s-.6-4.88-1.8-6.3a6.4,6.4,0,0,0-5.22-2.14,6.34,6.34,0,0,0-5.19,2.13Q486,204.06,486,208.24Z" transform="translate(-403 -126)"/><path class="cls-2" d="M516.22,197.28h12.16v19.08h9.42v2.79H514.21v-2.79h9.42V200.07h-7.41Zm7.41-8.52h4.75v4.55h-4.75Z" transform="translate(-403 -126)"/><path class="cls-2" d="M568.56,205.6v13.55h-4.77V205.6a6,6,0,0,0-1.37-4.34,5.82,5.82,0,0,0-4.29-1.38,6.24,6.24,0,0,0-6.91,6.91v12.36h-4.75V197.28h4.75v3.28a7.91,7.91,0,0,1,3.43-2.84,12.44,12.44,0,0,1,5.14-1c2.94,0,5.13.73,6.59,2.2S568.56,202.63,568.56,205.6Z" transform="translate(-403 -126)"/><path class="cls-2" d="M600.15,217.75c0,3.28-1,5.77-3.07,7.46s-5.06,2.54-9,2.54a31.17,31.17,0,0,1-4.1-.28,35.38,35.38,0,0,1-4.28-.8v-3.55a35.45,35.45,0,0,0,4.59,1.33,19.22,19.22,0,0,0,3.79.43c2.57,0,4.43-.53,5.6-1.59s1.76-2.72,1.76-5v-2.6a7,7,0,0,1-3.1,2.73,11.37,11.37,0,0,1-4.77.9,10.81,10.81,0,0,1-8.08-3.07,12.67,12.67,0,0,1,0-16.42,10.81,10.81,0,0,1,8.08-3.07,11.83,11.83,0,0,1,4.72.84,7.31,7.31,0,0,1,3.15,2.6v-2.83h4.75ZM595.4,208q0-4-1.74-6.14a6.21,6.21,0,0,0-5.07-2.1,6.67,6.67,0,0,0-5.32,2.1q-1.83,2.1-1.83,6.14t1.84,6.16a6.7,6.7,0,0,0,5.36,2.12,6.12,6.12,0,0,0,5-2.13A9.51,9.51,0,0,0,595.4,208Z" transform="translate(-403 -126)"/><path class="cls-2" d="M458.59,261.2h6.51v5.95h-6.51Z" transform="translate(-403 -126)"/><path class="cls-2" d="M505.18,266a19.86,19.86,0,0,1-3.94,1.26,20.33,20.33,0,0,1-4.14.42q-6.71,0-10.49-3.05a11.3,11.3,0,0,1,0-16.87q3.78-3,10.49-3.05a20.46,20.46,0,0,1,4.08.41,22,22,0,0,1,4,1.27v3.77a13.67,13.67,0,0,0-3.78-1.83,15,15,0,0,0-4.3-.57q-4.47,0-6.87,2.19a9.3,9.3,0,0,0,0,12.49q2.42,2.19,6.85,2.19a15.94,15.94,0,0,0,4.44-.57,12.1,12.1,0,0,0,3.64-1.79Z" transform="translate(-403 -126)"/><path class="cls-2" d="M526.11,259.22a5.13,5.13,0,0,0,1.17,3.66,4.57,4.57,0,0,0,3.47,1.23h5.55v3h-6a9.63,9.63,0,0,1-6.6-2.07,7.43,7.43,0,0,1-2.33-5.86V239.36h-7.62v-2.81h12.37Z" transform="translate(-403 -126)"/><path class="cls-2" d="M546.47,258.87V245.32h4.75v13.55a6,6,0,0,0,1.38,4.34,5.82,5.82,0,0,0,4.27,1.39,6.25,6.25,0,0,0,6.92-6.92V245.32h4.77v21.83h-4.77v-3.28a8,8,0,0,1-3.45,2.87,12.21,12.21,0,0,1-5.1,1q-4.44,0-6.6-2.2T546.47,258.87Z" transform="translate(-403 -126)"/><path class="cls-2" d="M583,248.07a7.17,7.17,0,0,1,3.13-2.46,11.73,11.73,0,0,1,4.63-.86,11,11,0,0,1,8.21,3q3,3,3,8.37c0,3.6-1,6.43-3,8.48a11,11,0,0,1-8.25,3.08,11.33,11.33,0,0,1-4.55-.85A7.5,7.5,0,0,1,583,264.4v2.75h-4.75V236.76H583Zm14,8.17q0-4.19-1.76-6.31A6.33,6.33,0,0,0,590,247.8a6.4,6.4,0,0,0-5.24,2.14q-1.78,2.13-1.78,6.3c0,2.76.59,4.85,1.78,6.29a6.4,6.4,0,0,0,5.24,2.14,6.33,6.33,0,0,0,5.18-2.13C596.36,261.13,597,259,597,256.24Z" transform="translate(-403 -126)"/></svg>